<svg xmlns="http://www.w3.org/2000/svg" viewBox="132 84 390.624 157.445">
  <defs>
    <style>
      .cls-1 {
        fill: #1b2a37;
      }

      .cls-2 {
        fill: #f9a332;
      }
    </style>
  </defs>
  <g id="Group_2" data-name="Group 2" transform="translate(131.538 84.41)">
    <path id="Path_1" data-name="Path 1" class="cls-1" d="M80.9,132.326Z" transform="translate(-27.96 -46.373)"/>
    <g id="Group_1" data-name="Group 1" transform="translate(0.462 -0.41)">
      <path id="Path_2" data-name="Path 2" class="cls-1" d="M92.581,20.036,85.273,16.05,79.959,26.679l7.308,3.986Z" transform="translate(-28.141 -5.421)"/>
      <path id="Path_3" data-name="Path 3" class="cls-1" d="M360.527,47.422h0L372.485,24.17h18.6v-9.3l-14.615.664L382.45,3.576,375.142-.41,367.17,15.534h-18.6V24.17H362.52l-9.965,19.265c-3.84,6.378-6.632,10.683-9.3,13.287a15.076,15.076,0,0,1-3.986,2.657c-.065.065.065,0,0,0h0a5.37,5.37,0,0,1-2.657.664,5.029,5.029,0,0,1-1.993-.664h0a8.209,8.209,0,0,1,.664-3.986c1.171-2.929,3.688-6.646,5.315-9.965a39.957,39.957,0,0,0,1.993-4.65,15.692,15.692,0,0,0,.664-5.315,7.285,7.285,0,0,0,0-2.657,3.649,3.649,0,0,0-.664-1.329,8.407,8.407,0,0,0-3.322-1.993,6.944,6.944,0,0,0-2.657-.664c-4.1.065-7.909,1.773-11.294,3.986L339.933,4.241,331.961.919,309.374,44.1c-3.9,6.508-6.776,10.748-9.965,13.287-3.189,2.668-5.954,3.986-7.972,3.986h0c2.343-4.751,3.921-7.907,3.986-7.972l7.308-15.28,4.65-8.636L299.409,25.5l-1.993,4.65c-.521-.39-.808-1-1.329-1.329a14.471,14.471,0,0,0-6.643-1.329,21.025,21.025,0,0,0-9.3,2.657,27.276,27.276,0,0,0-8.636,7.308c-1.432,1.822-9.433,14.357-12.622,17.937-1.627,1.757-2.554,3.075-3.986,3.986s-3.27,1.993-3.986,1.993a8.457,8.457,0,0,1-1.329,0l-.664-.664c-.13-.2.13-.743,0-1.329a6.673,6.673,0,0,1,0-1.993,20.852,20.852,0,0,1,1.993-7.972c.13-.13-.065-.469,0-.664v-.664l7.972-15.944-7.308-3.986L242.941,44.1c-3.9,6.508-7.779,11.218-11.294,13.951-3.579,2.8-6.163,3.921-8.636,3.986a8.636,8.636,0,0,1-4.65-1.329,10.514,10.514,0,0,1-2.657-1.993,46.219,46.219,0,0,0,14.615-7.972,33.1,33.1,0,0,0,5.979-7.308,14.432,14.432,0,0,0,2.657-7.972,9.8,9.8,0,0,0-1.329-5.315,10.65,10.65,0,0,0-3.986-3.986,10.28,10.28,0,0,0-4.65-1.329c-3.059.065-5.968,1.695-8.636,3.322a35.021,35.021,0,0,0-10.629,9.965,28.515,28.515,0,0,0-4.65,15.28,14.554,14.554,0,0,0,1.993,7.972,19.657,19.657,0,0,0,6.643,6.643,17.607,17.607,0,0,0,9.3,2.657c4.751-.065,9.2-1.735,13.951-5.315,1.171-.911,2.815-2.215,3.986-3.322a9.973,9.973,0,0,0,3.322,5.315c.976.781,1.421,1.6,2.657,1.993s2.619,0,3.986,0a14.982,14.982,0,0,0,7.972-1.993,35.349,35.349,0,0,0,5.979-5.315,12.237,12.237,0,0,0,1.329,3.322c.911,1.237,2.554,1.941,3.986,2.657a10.9,10.9,0,0,0,4.65,1.329c1.237,0,2.15.325,3.322,0C276,73.77,274.045,78.219,271.507,83.3l-75.069,1.329c-3.319.065-6.646,0-9.965,0-1.367,0-2.619-.065-3.986,0,7.81-16.2,14.485-29.634,14.615-29.895l9.965-19.93-8.636-4.65v1.329a125.707,125.707,0,0,1-7.308,15.28,45.561,45.561,0,0,1-6.643,8.636c-1.106,1.171-1.811,2.8-2.657,3.322a4.289,4.289,0,0,1-1.993.664h-.664c-.39-.13-.534-.6-.664-.664a1.308,1.308,0,0,1-.664-.664,9.808,9.808,0,0,1,0-1.993,21.184,21.184,0,0,1,.664-6.643c.39-1.3.808-2.684,1.329-3.986.065-.065.664.065.664,0,.911-2.148,1.811-3.623,2.657-5.315.716-1.432,1.472-3.14,1.993-3.986.26-.39.534-.4.664-.664V34.8h0l-7.308-4.65c-.065.065-2.372,4.42-4.65,9.3-.456.976-.873,1.681-1.329,2.657a93.274,93.274,0,0,1-7.972,13.287,33.971,33.971,0,0,1-5.315,5.315,2.773,2.773,0,0,1-1.329.664,6.145,6.145,0,0,1-1.329.664,19.576,19.576,0,0,1-1.993,0v-.664c-.13-.2.13-.079,0-.664a8.784,8.784,0,0,1-.664-2.657,20.552,20.552,0,0,1,1.993-7.972,6.394,6.394,0,0,1,.664-.664h0l11.958-23.251h17.272V17.527l-13.287.664L178.5,6.234,170.53,2.248l-7.972,15.944H143.292v8.636l15.28-.664-9.965,19.265c-3.84,6.378-7.3,11.348-9.965,13.951a9.3,9.3,0,0,1-3.322,1.993c-1.106.521-2.085,1.329-3.322,1.329-.781,0-1.068-.6-1.329-.664h-.664a15.254,15.254,0,0,1,1.329-4.65c1.106-2.929,3.023-6.581,4.65-9.965a39.951,39.951,0,0,0,1.993-4.65c.586-1.627,1.329-2.763,1.329-4.65a8.383,8.383,0,0,0-.664-2.657c-.26-.651-.144-.743-.664-1.329a9.633,9.633,0,0,0-3.322-1.993A8.383,8.383,0,0,0,132,31.478c-4.1.065-7.245,1.773-10.629,3.986L135.32,6.9l-7.308-3.986L105.426,46.757c-3.9,6.508-7.44,10.683-10.629,13.287a12.707,12.707,0,0,1-7.972,3.322h0c2.278-4.751,3.921-7.907,3.986-7.972L102.1,32.807l-7.972-3.986L92.8,32.142a12.647,12.647,0,0,0-1.329-.664,14.471,14.471,0,0,0-6.643-1.329,21.026,21.026,0,0,0-9.3,2.657C65.314,38.338,61.692,49.786,54.273,58.051a31.2,31.2,0,0,1-4.65,4.65,5.038,5.038,0,0,1-3.322.664c-.716,0-1.068.13-1.329,0h-.664c-.13-.13.13-.678,0-1.329a11.947,11.947,0,0,1,0-2.657c0-5.532,2.777-9.864,5.315-14.615.39-.651,4.65-10.629,4.65-10.629l-7.308-3.322L38.993,46.757A50.559,50.559,0,0,1,27.035,60.708a14.868,14.868,0,0,1-9.3,3.322c-1.692,0-3.284.182-4.65-.664a6.448,6.448,0,0,1-1.993-1.993c5.271-1.757,9.786-5.187,13.951-8.636a36.734,36.734,0,0,0,6.643-7.308c1.627-2.538,3.322-4.848,3.322-7.972a10.7,10.7,0,0,0-1.993-5.315,11.681,11.681,0,0,0-3.986-3.986,9.548,9.548,0,0,0-4.65-.664,17.229,17.229,0,0,0-8.636,2.657A35.021,35.021,0,0,0,5.113,40.114a29.633,29.633,0,0,0-4.65,15.28,14.693,14.693,0,0,0,1.993,7.972A21.8,21.8,0,0,0,9.1,70.673a15.543,15.543,0,0,0,8.636,2.657c4.751-.065,10.529-2.334,15.28-5.979,1.171-.911,2.085-2.15,3.322-3.322.521,1.952.835,3.753,2.657,5.315a14.3,14.3,0,0,0,3.986,1.993A9.441,9.441,0,0,0,46.3,72a15.538,15.538,0,0,0,7.972-2.657,30.848,30.848,0,0,0,5.979-4.65c.39,1.171,1.277,1.681,1.993,2.657a10.128,10.128,0,0,0,3.322,3.322,10.126,10.126,0,0,0,4.65.664,20.39,20.39,0,0,0,3.986,0c-2.213,4.621-5.369,9.943-7.972,15.28-4.1.456-8.118.626-11.958,1.993a35.621,35.621,0,0,0-11.294,6.643c-3.384,2.994-5.694,6.543-7.972,11.294-2.343,5.011-3.986,9.851-3.986,13.951,0,3.644,1.421,6.632,2.657,9.3a24.65,24.65,0,0,0,6.643,8.636c2.148,1.822,3.791,3.191,3.986,3.322l3.986,1.993,1.993-3.986c3.775-7.549,13.072-26.887,21.923-45.174,2.668-.2,5.108-.664,7.972-.664,3.189-.065,6.581,0,9.965,0L150.6,93.26c-.39.26-1,.339-1.329.664a37.235,37.235,0,0,0-8.636,11.958,30.666,30.666,0,0,0-3.322,13.287,22.291,22.291,0,0,0,1.993,9.3,28.771,28.771,0,0,0,7.308,9.3,8.675,8.675,0,0,0,3.986,1.993l3.986,1.993,1.993-3.322c3.775-7.549,12.342-27.551,21.258-45.838,1.171-.065,2.815.065,3.986,0,3.514-.065,5.979.065,5.979,0,2.929-.065,5.578.065,8.636,0l52.482-.664c-.325.26-1,.4-1.329.664a37.235,37.235,0,0,0-8.636,11.958,33.354,33.354,0,0,0-3.322,13.951,21.324,21.324,0,0,0,1.993,9.3c1.822,4.035,4.5,6.15,6.643,7.972s3.791,3.191,3.986,3.322l3.986,1.993,1.993-3.986c3.71-7.549,13.072-26.887,21.923-45.174,2.668-.13,5.108-.664,7.972-.664,3.189,0,6.581.065,9.965,0,21.476-.26,82.376-.664,82.376-.664V81.967s-60.9,1.068-82.376,1.329c-3.319.065-6.711,0-9.965,0-1.367,0-2.619-.065-3.986,0,1.5-3.124,3.349-6.5,4.65-9.3l1.329-3.322c.26-.521,1.068-.808,1.329-1.329h0c1.367.325,4.612,0,5.979,0,6.638-.065,14.1-6.608,17.937-11.294,4.881-5.987,7.169-13.186,13.287-17.937a13.463,13.463,0,0,1,7.308-2.657c1.171,0,1.849,1.551,1.329,2.657-1.627,3.514-3.088,6.451-4.65,9.965-2.017,4.621-4.439,11.049-.664,15.28a7.658,7.658,0,0,0,3.322,2.657,12.783,12.783,0,0,0,3.986.664h.664a17.369,17.369,0,0,0,7.308-1.329,23.315,23.315,0,0,0,7.308-5.979,8.316,8.316,0,0,0,2.657,3.986,10.051,10.051,0,0,0,3.322,1.993,13.462,13.462,0,0,0,3.986.664,10.074,10.074,0,0,0,3.986-.664,24.494,24.494,0,0,0,6.643-4.65,51.81,51.81,0,0,0,7.308-9.3c2.278-3.514,4.417-6.906,5.979-9.965l-7.972-3.986c-2.278,4.425-4.718,9.786-7.972,13.951a27.35,27.35,0,0,1-5.315,4.65c-.716.521-.808,1.133-1.329,1.329s-1.068-.065-1.329,0c-.781,0-1.068.13-1.329,0h-.664c-.13-.13.13-.743,0-1.329a8.785,8.785,0,0,1-.664-2.657,20.553,20.553,0,0,1,1.993-7.972C360.188,47.357,360.4,47.552,360.527,47.422Zm-139.508-9.3c5.467-5.467,8.989-5.027,9.965-3.986,1.171,1.367-1.068,10.022-17.272,15.944A29.785,29.785,0,0,1,221.019,38.121ZM9.1,52.736a29.981,29.981,0,0,1,7.308-12.622c5.467-5.467,8.989-4.363,9.965-3.322C27.477,38.159,25.3,46.814,9.1,52.736Zm35.209,78.39c-.325-.26-.4-.938-.664-1.329-.976-1.106-2.007-1.76-2.657-3.322a16.835,16.835,0,0,1-.664-5.979,23.728,23.728,0,0,1,2.657-9.965,26.259,26.259,0,0,1,5.979-8.636,29.5,29.5,0,0,1,13.287-6.643C55.606,108.92,48.343,122.8,44.308,131.127Zm29.23-69.09a7.435,7.435,0,0,1-3.322,1.329c-.456,0-.534.13-.664,0a5.02,5.02,0,0,1-1.329-1.329c-.325-.586,0-1.291,0-2.657a20.268,20.268,0,0,1,1.329-6.643,27.192,27.192,0,0,1,3.986-7.308,21.2,21.2,0,0,1,5.979-5.315,11.365,11.365,0,0,1,5.315-1.329,4.387,4.387,0,0,1,2.657.664c.2.2-.13.4,0,.664a4.395,4.395,0,0,1,0,1.329,2.224,2.224,0,0,1,0,.664L85.5,47.422a65.125,65.125,0,0,1-7.972,11.294A17.978,17.978,0,0,1,73.538,62.037ZM150.6,129.8a6.394,6.394,0,0,1-.664-.664,16.366,16.366,0,0,1-2.657-3.986,17.02,17.02,0,0,1-.664-5.979,21.711,21.711,0,0,1,1.993-9.965,27.338,27.338,0,0,1,6.643-8.636c3.579-3.124,8.145-4.873,13.287-5.979C161.964,108.256,154.635,121.533,150.6,129.8Zm22.587-45.174-83.041.664c-3.319,0-6.711-.065-9.965,0H76.2c2.408-5.011,4.626-9.786,6.643-13.951A44.181,44.181,0,0,0,89.482,72c6.638-.065,14.1-6.608,17.937-11.294,4.881-5.987,7.1-13.251,13.287-17.937a11.4,11.4,0,0,1,6.643-2.657c1.237,0,2.449.887,1.993,1.993-1.627,3.514-3.753,7.115-5.315,10.629-2.017,4.621-4.439,11.049-.664,15.28a10.729,10.729,0,0,0,3.986,2.657,15.156,15.156,0,0,0,4.65.664,16.068,16.068,0,0,0,6.643-1.993,24.251,24.251,0,0,0,7.308-5.979,10.212,10.212,0,0,0,2.657,4.65,13.468,13.468,0,0,0,3.986,1.993,11.649,11.649,0,0,0,3.986.664c1.562,0,2.619-.808,3.986-1.329a19.24,19.24,0,0,0,5.979-3.986c1.106-1.106,2.945-2.749,3.986-3.986.13.26-.13,1.068,0,1.329a9.388,9.388,0,0,0,2.657,2.657c.976.781,1.421,1.6,2.657,1.993a13.636,13.636,0,0,0,3.986,0,9.042,9.042,0,0,0,1.329,0C178.881,72.428,176.181,78.572,173.187,84.624ZM248.92,128.47a6.394,6.394,0,0,1-.664-.664,14.7,14.7,0,0,1-2.657-3.986,12.081,12.081,0,0,1-1.329-5.315,23.964,23.964,0,0,1,2.657-9.965c1.822-3.84,3.571-7.088,5.979-9.3,3.579-3.124,8.145-4.873,13.287-5.979C259.555,106.927,252.955,120.27,248.92,128.47Zm33.216-72.412a14.994,14.994,0,0,1-3.986,3.322,9.036,9.036,0,0,1-3.986,1.329c-.39,0-.534.13-.664,0-.2-.065-.339-.678-.664-1.329a5.063,5.063,0,0,1-.664-2.657,20.268,20.268,0,0,1,1.329-6.643,30.978,30.978,0,0,1,4.65-7.308,18.234,18.234,0,0,1,5.979-4.65c1.952-1.041,3.219-1.993,4.65-1.993a7.3,7.3,0,0,1,3.322.664c.2.13-.13.4,0,.664a4.395,4.395,0,0,1,0,1.329,9,9,0,0,1,0,1.329A70.706,70.706,0,0,1,282.137,56.058Z" transform="translate(-0.462 0.41)"/>
      <path id="Path_4" data-name="Path 4" class="cls-1" d="M407.049,16.923l-7.308-3.986L394.427,22.9l7.308,3.986Z" transform="translate(-137.997 -4.301)"/>
    </g>
    <path id="Path_5" data-name="Path 5" class="cls-2" d="M472.965,159.023c-18.092,0-32.552,11.735-32.552,26.573s14.46,27.237,32.552,27.237,32.552-12.4,32.552-27.237S491.057,159.023,472.965,159.023Z" transform="translate(-153.626 -55.798)"/>
    <path id="Path_6" data-name="Path 6" class="cls-1" d="M502.764,213.029s-5.59,11.294-25.244,11.294c-18.613,0-23.916-9.965-23.916-9.965l2.657-1.993S461.575,221,477.519,221c17.637,0,21.923-9.965,21.923-9.965Z" transform="translate(-158.181 -73.93)"/>
    <path id="Path_7" data-name="Path 7" class="cls-1" d="M478.028,168.008c-13.6,0-24.751,7.445-26.573,17.272-1.757,9.827,4.2,10.705,11.294,7.972,0,0,2.2,3.322,5.979,3.322,3.124,0,5.865-.355,9.965-4.65,0,0,1.347,5.315,8.636,5.315,7.029,0,14.615-6.713,14.615-13.287C502.008,179.07,496.966,168.008,478.028,168.008Zm16.608,22.587c-7.484,6.508-11.958,1.329-11.958,1.329a18.757,18.757,0,0,0,6.643-3.986c2.083-2.083,5.117-5.187,1.993-8.636-3.189-3.514-10.214,1.372-12.622,6.643-2.148,4.686-6.893,7.308-9.3,7.308a10.759,10.759,0,0,1-3.986-.664s14.051-6.635,9.3-12.622c-4.881-6.117-15.109,5.553-13.287,10.629,0,0-6.266,2.343-7.308,0-1.3-2.929.606-20.177,26.573-19.265C493.636,171.785,504.4,182.069,494.636,190.595ZM482.014,188.6a9.732,9.732,0,0,1,2.657-5.315c2.343-2.343,3.6-1.784,3.986-1.329C489.177,182.544,488.977,186.064,482.014,188.6Zm-17.272,0a9.732,9.732,0,0,1,2.657-5.315c2.343-2.343,4.26-1.784,4.65-1.329C472.569,182.544,471.7,186.064,464.741,188.6Z" transform="translate(-157.36 -58.803)"/>
  </g>
</svg>
