<?xml version="1.0" encoding="utf-8"?>
<!-- Generator: Adobe Illustrator 22.1.0, SVG Export Plug-In . SVG Version: 6.00 Build 0)  -->
<svg version="1.1" id="Layer_1" xmlns="http://www.w3.org/2000/svg" xmlns:xlink="http://www.w3.org/1999/xlink" x="0px" y="0px"
	 viewBox="0 0 830 335" style="enable-background:new 0 0 830 335;" xml:space="preserve">
<style type="text/css">
	.st0{fill:#1B2A37;}
	.st1{fill:#F9A231;}
</style>
<g>
	<polygon class="st0" points="137.2,31.3 121.1,23.1 109.7,45.2 125.9,53.4 	"/>
	<path class="st0" d="M764.2,101.4l0.1-0.2l25.3-49.3l39.9-0.5V33.2l-30.5,0.4l12.8-25l-16.2-8.1l-17.1,33.3l-39.3,0.5v18.2
		l29.8-0.4l-20.7,40.4c-8.1,13.6-14.7,23.2-20.4,28.7c-2.9,2.8-5.4,4.5-7.7,5.7c-0.2,0.1-0.3,0.1-0.5,0.2h-0.1
		c-2.2,1-4.2,1.4-6.7,1.5c-1.7,0-2.9-0.2-3.5-0.4l-0.3-0.1v-0.4c-0.1-1.5,0.7-5.1,2.4-9.2c2.5-6.2,6.4-13.7,9.9-20.8
		c1.8-3.6,3.4-7.1,4.7-10.5c1.3-3.5,2.3-6.8,2.4-10.8c0-1.6-0.2-3.3-0.8-5.2c-0.5-1.4-1.2-2.8-2.3-4c-1.6-1.9-3.8-3.3-5.9-4
		c-2.1-0.7-4.1-0.9-6.1-0.9c-8.7,0.1-16.7,3.5-23.9,8.2l30.6-59.6l-16.2-8.2L657,94.7c-8.3,13.9-16.1,23.2-22.7,28.7
		c-6.8,5.6-12.1,7.4-16.5,7.5c0,0-0.1,0-0.1,0l0,0h-0.1c4.9-10.1,7.9-16.4,8-16.6l16.2-32.7l9.2-18.6l-16.3-8l-4.8,9.7
		c-1.1-0.9-2.2-1.6-3.4-2.3c-4.1-2.2-8.7-3.1-13.4-3.1c-6.5,0.1-13.2,2-19.7,5.5c-6.5,3.6-12.8,8.7-18.1,15.7
		c-3.1,3.9-19.4,30.9-26.3,38.5c-3.4,3.8-6.9,6.9-10,8.9c-3,2-5.5,2.7-7,2.7c-1.6-0.1-2.4-0.3-2.9-0.5l-0.7-0.6
		c-0.3-0.4-0.8-1.1-1.1-2.3c-0.4-1.2-0.6-3-0.6-5c0-5.5,1.9-13,4-17.3c0.2-0.3,0.4-0.6,0.6-0.9l0.2-0.3L549.2,69L533,60.8
		l-17.7,34.3c-8.2,13.9-16.7,23.4-24.2,29.2c-7.6,5.9-14.3,8-19.6,8.1c-3.7,0.1-6.8-0.9-9.7-2.6c-1.9-1.1-3.6-2.7-5.2-4.5
		c11.2-3.7,21.9-10,30.7-17.2c5.4-4.5,10-9.5,13.6-14.8c3.5-5.3,6-11.1,6.1-17.6c0-3.8-1-7.8-3.2-11.2c-2.1-3.4-5.3-6.1-9-8.1
		c-3.2-1.7-6.6-2.4-9.9-2.4c-6.5,0.1-12.4,2.6-18.1,6.1c-8.4,5.2-16.3,13-22.5,22.1c-6.1,9.1-10.6,19.8-10.7,31
		c0,6.1,1.4,12.2,4.7,17.8c3.6,6,8.2,11,13.9,14.4c5.7,3.5,12.3,5.3,19.3,5.2c10.1-0.1,20.6-4.2,30.6-11.9c2.5-2,5-4.1,7.5-6.5
		c1.1,4.1,3.2,8.4,7,11.6c2,1.7,4.4,3,7,3.9c2.6,0.9,5.4,1.3,8.3,1.2c6.3-0.1,11.9-2.5,16.8-5.6c4.5-3,8.6-6.7,12.5-10.9
		c0.8,2.5,1.9,4.8,3.5,7c1.9,2.6,4.4,4.8,7.5,6.3c3,1.5,6.5,2.2,9.9,2.2c2.7,0,5.2-0.5,7.7-1.1c-4.6,9.4-9.7,20-15,30.9l-158.4,1.9
		c-7,0.1-14,0.1-21,0.1c-2.9,0.1-5.7,0.1-8.6,0.2c16.7-34.3,30.3-62.6,30.6-63.2l21.2-42.7L421,65.5l-0.7,1.5
		c-0.6,1.6-7,17.7-15.6,32.7c-4.3,7.5-9.2,14.8-13.9,19.8c-2.3,2.5-4.6,4.3-6.4,5.4c-1.9,1.1-3.1,1.4-3.9,1.4l-1-0.1
		c-0.8-0.2-1.2-0.5-1.5-0.7c-0.4-0.3-0.6-0.6-1-1.5c-0.3-0.8-0.6-2.2-0.6-4.1c0-3.4,0.9-8.1,2.5-13.1c0.9-2.8,2-5.7,3.1-8.5
		c0.1-0.2,0.2-0.4,0.2-0.5c1.9-4.6,4-8.9,5.8-12.6c1.5-3,3-5.5,4-7.3c0.5-0.9,0.9-1.5,1.2-2l0.3-0.5l0.1-0.1L378.1,66
		c-0.1,0.2-4.9,8-9.7,18.4c-1,2-1.9,4.2-2.8,6.4c-4.8,9.1-11.2,20.2-17.9,28.8c-3.5,4.4-7,8.2-10.1,10.5c-1.5,1.2-2.9,2-4,2.5
		c-1.1,0.5-1.9,0.6-2.4,0.6c-1.6-0.1-2.4-0.3-2.9-0.5l-0.7-0.6c-0.3-0.4-0.8-1.1-1.1-2.3c-0.4-1.2-0.6-3-0.6-5c0-5.6,2-13.1,4-17.5
		c0.2-0.3,0.3-0.5,0.5-0.8l0.1-0.2L355.8,57l37.5-0.5V38.4l-28.1,0.3l12.9-24.9l-16.2-8.2l-17.1,33.4l-41.7,0.5v18.2l32.3-0.4
		l-20.7,40.3c-8.1,13.6-14.7,23.2-20.4,28.7c-2.9,2.8-5.4,4.5-7.7,5.7c-2.3,1-4.5,1.6-7.2,1.6c-1.7,0-2.9-0.2-3.5-0.4l-0.2-0.1v-0.4
		c-0.1-1.5,0.7-5.1,2.4-9.1c2.4-6.2,6.4-13.7,9.9-20.8c1.8-3.6,3.4-7.1,4.7-10.5c1.3-3.5,2.3-6.8,2.4-10.8c0-1.6-0.2-3.3-0.8-5.1
		c-0.5-1.4-1.3-2.8-2.3-4c-1.5-1.9-3.7-3.2-5.8-4c-2.1-0.7-4.1-0.9-6.1-0.9c-8.7,0.1-16.7,3.5-23.9,8.2L286.7,16l-16.2-8.2l-47.3,92
		c-8.3,13.9-16.1,23.2-22.7,28.7c-6.8,5.6-12.1,7.4-16.5,7.4c-0.1,0-0.2,0-0.4,0c4.9-10.1,7.9-16.3,8-16.5l24.3-49l-16.3-8l-3.7,7.5
		c-1.1-0.9-2.2-1.5-3.3-2.2c-4.1-2.2-8.7-3.1-13.4-3.1c-6.5,0.1-13.2,2-19.7,5.6c-21.7,11.8-28.7,36.7-44.4,54.1
		c-3.4,3.8-6.9,7-10,8.9c-3,2-5.5,2.7-7,2.7c-1.6-0.1-2.4-0.3-2.9-0.5l-0.7-0.6c-0.3-0.3-0.8-1-1.1-2.3c-0.4-1.2-0.6-3-0.6-5
		c0-11.8,6.1-21.7,11.5-31.8c0.8-1.5,11-21.7,11.1-21.7l-16.2-8.2l-17.6,34.4c-8.3,13.9-16.7,23.3-24.3,29.1
		c-7.6,5.9-14.3,8.1-19.6,8.1c-3.6,0-6.8-0.8-9.7-2.6c-1.9-1.1-3.6-2.7-5.2-4.6c11.2-3.7,21.9-9.9,30.6-17.2
		c5.4-4.5,10-9.4,13.6-14.7c3.5-5.3,6-11.1,6.1-17.6c0-3.8-1-7.8-3.2-11.2c-2.2-3.5-5.3-6.1-9-8.1c-3.2-1.7-6.7-2.4-9.9-2.3
		c-6.5,0.1-12.4,2.6-18,6c-8.4,5.2-16.3,13-22.5,22.1c-6.1,9.2-10.6,19.8-10.7,31c0,6,1.4,12.3,4.7,17.8c3.6,6,8.2,11,13.9,14.4
		c5.7,3.5,12.3,5.4,19.3,5.2c10.1-0.1,20.6-4.2,30.6-11.9c2.5-2,5-4.1,7.5-6.6c1.1,4.2,3.2,8.5,7,11.7c2,1.7,4.4,3,7,3.9
		c2.6,0.9,5.4,1.2,8.3,1.2c6.3-0.1,11.9-2.5,16.8-5.7c4.5-3,8.6-6.7,12.4-10.8c0.8,2.5,1.9,4.8,3.5,7c1.9,2.6,4.4,4.8,7.5,6.3
		c3,1.5,6.5,2.2,9.9,2.2c2.6,0,5.1-0.5,7.5-1.1c-4.7,9.8-10,20.6-15.5,32c-8.7,1-17.2,2.7-25.4,5.5c-8.5,3.1-16.6,7.6-23.8,13.8
		c-7.1,6.4-13.3,14.6-18.1,24.7c-5,10.6-7.1,20.3-7.1,29c0,7.7,1.7,14.4,4.2,20.1c3.8,8.5,9.4,14.5,14,18.4c4.6,3.9,8.3,5.7,8.7,6
		l8.2,4.1l4.1-8.3c8-16,28.1-57.4,46.9-96.2c5.7-0.4,11.5-0.5,17.6-0.6c6.8-0.1,13.8-0.1,21-0.1l128.4-1.5c-0.8,0.6-1.5,1.2-2.2,1.8
		c-7.2,6.4-13.3,14.6-18.1,24.7c-5,10.6-7.2,20.3-7.1,29c0,7.7,1.7,14.5,4.2,20.1c3.8,8.5,9.4,14.5,14,18.4c4.6,3.8,8.3,5.7,8.7,6
		l8.2,4.1l4.1-8.3c8-16,28.1-57.4,46.9-96.2c2.4-0.1,4.9-0.3,7.5-0.4c7.4-0.1,11.9-0.1,11.9-0.2c6.3-0.1,12.7,0,19.2-0.1l110.9-1.3
		c-0.7,0.6-1.5,1.2-2.2,1.8c-7.2,6.4-13.3,14.6-18,24.7c-5,10.6-7.1,20.3-7.1,29c0,7.7,1.7,14.5,4.2,20.1c3.8,8.5,9.4,14.5,14,18.4
		c4.6,3.8,8.3,5.7,8.8,6l8.1,4.1l4.1-8.3c7.9-16,28.1-57.4,46.9-96.2c5.7-0.3,11.5-0.5,17.6-0.6c6.8,0,13.9,0,21.1-0.1
		c45.5-0.6,174.6-2.1,174.6-2.1V175c0,0-129.1,1.5-174.6,2c-7,0.1-14.1,0.1-21.1,0.1c-2.9,0-5.7,0.1-8.5,0.2
		c3.2-6.6,6.3-13.1,9.2-19.1l3.4-7c0.6-1.1,1.1-2.3,1.6-3.4h0c2.9,0.7,10.2,1,13.1,1c14.1-0.2,30-14.8,38.2-24.7
		c10.4-12.7,15.1-27.4,28.2-37.5c3.9-2.9,9.9-6.5,15.4-6.5c2.5,0,4.3,2.6,3.2,5c-3.4,7.4-7.2,14.7-10.5,22.1c-4.3,9.8-9.2,24.1-1,33
		c2.1,2.4,4.9,4,7.9,5c2.7,0.9,5.5,1.3,8.5,1.3c0.3,0,0.7,0,1.1,0c5.1,0,10.2-1.2,14.8-3.4c5.7-2.7,10.7-6.8,15.4-12
		c1.2,3.5,3.2,7,6.4,9.7c2,1.7,4.4,3,7,3.9c2.6,0.9,5.4,1.2,8.3,1.2c3.4-0.1,6.5-0.9,9.4-2.1c5-2.1,9.3-5.5,13.3-9.4
		c6-5.9,11.3-13.1,16.1-20.5c4.8-7.4,9-15,12.3-21.5L800,84.5c-4.8,9.3-11.5,21-18.4,29.9c-3.5,4.4-7,8.2-10.1,10.5
		c-1.5,1.1-2.9,2-4,2.5c-1.1,0.5-1.9,0.6-2.4,0.6c-1.6,0-2.4-0.3-2.9-0.5l-0.7-0.6c-0.3-0.3-0.8-1-1.1-2.3c-0.4-1.2-0.6-3-0.6-4.9
		c0-5.7,2-13.2,4-17.5C763.9,101.9,764.1,101.7,764.2,101.4z M467.6,81.6c11.6-11.6,19.1-10.1,21.1-7.8c2.5,2.9-1.8,21.1-36.2,33.7
		C452.4,107.4,456,93.2,467.6,81.6z M18.1,112.6c0,0,3.5-14.3,15.1-25.9c11.6-11.6,19.1-10.1,21.1-7.8
		C56.8,81.8,52.5,99.9,18.1,112.6z M93.6,279.5c-0.6-0.6-1.2-1.3-1.9-2c-2-2.3-4-5.2-5.4-8.6c-1.4-3.5-2.4-7.4-2.4-12.1
		c0-5.7,1.4-12.6,5.4-21.2c3.9-8.2,8.4-14.1,13.6-18.8c7.5-6.6,16.6-10.6,27.5-13C116.3,232.9,102.2,261.9,93.6,279.5z M155.5,132.5
		c-2.7,1.5-5,2.2-7.4,2.3c-0.9,0-1.4-0.2-1.7-0.4c-0.5-0.2-1-0.6-1.6-2c-0.6-1.3-1.2-3.5-1.2-6.4c0-3.6,0.8-8.3,2.8-13.4
		c1.9-5,5-10.5,9.1-15.9c3.9-5,8.3-8.5,12.5-10.8c4.2-2.3,8.2-3.3,11.2-3.3c2.9,0,4.7,0.8,5.5,1.5c0.4,0.4,0.6,0.7,0.9,1.2
		c0.2,0.6,0.5,1.3,0.5,2.6c0,0.6-0.1,1.3-0.2,2l-5.3,10.7c-5.1,9-10.7,18-16.5,24.4C161.1,128.5,158.2,131,155.5,132.5z
		 M319.3,276.8c-0.6-0.6-1.3-1.3-1.9-2c-2.1-2.4-4-5.2-5.5-8.6c-1.4-3.5-2.3-7.3-2.3-12.1c0-5.7,1.4-12.7,5.4-21.2
		c3.9-8.2,8.4-14.1,13.6-18.7c7.6-6.6,16.7-10.6,27.5-13C342.1,230.3,327.9,259.3,319.3,276.8z M366.4,180.1l-175.9,2.1
		c-7,0-14.1,0-21,0.1c-2.9,0-5.7,0.1-8.6,0.2c5.1-10.6,10-20.6,14.3-29.4c2.8,0.7,10.3,1,13.2,1c14.1-0.2,30-14.8,38.2-24.7
		c10.4-12.6,15.1-27.4,28.2-37.5c3.9-2.9,9.9-6.5,15.3-6.5c2.6-0.1,4.3,2.6,3.3,4.9c-3.4,7.4-7.2,14.7-10.5,22.2
		c-4.3,9.8-9.2,24.1-1.1,33c2.1,2.4,5,4,7.9,5c3,1,6.1,1.3,9.6,1.4c5.1-0.1,10.2-1.2,14.8-3.4c5.7-2.7,10.7-6.8,15.4-12
		c1.2,3.5,3.2,7,6.4,9.7c2,1.7,4.4,3,7,3.9c2.6,0.9,5.4,1.3,8.3,1.2c3.4,0,6.5-0.9,9.4-2.1c5-2.2,9.3-5.6,13.3-9.4
		c2.4-2.3,4.6-4.9,6.8-7.6c0.3,0.6,0.5,1.2,0.8,1.8c1.2,2.2,3,4.2,5,5.9c2.1,1.6,4.5,2.9,7.2,3.7c2.2,0.7,4.5,1.1,6.7,1
		c1.1,0,2.2-0.1,3.2-0.3C378.6,154.9,372.6,167.2,366.4,180.1z M527.5,274.4c-0.6-0.6-1.3-1.3-1.9-2c-2-2.4-4-5.2-5.4-8.6
		c-1.5-3.5-2.4-7.3-2.4-12c0-5.7,1.4-12.7,5.4-21.3c3.9-8.2,8.5-14.1,13.6-18.7c7.6-6.6,16.7-10.6,27.5-13
		C550.3,227.8,536.1,256.9,527.5,274.4z M597.9,120.1c-2.8,3.3-5.8,5.7-8.5,7.3c-2.7,1.6-5,2.2-7.5,2.3c-0.9,0-1.3-0.2-1.6-0.4
		c-0.5-0.2-1-0.6-1.6-1.9c-0.6-1.3-1.2-3.6-1.2-6.5c0-3.6,0.8-8.3,2.8-13.4c1.9-5,5-10.5,9.1-15.9c3.9-5,8.3-8.5,12.5-10.7
		c4.2-2.3,8.2-3.3,11.2-3.3c2.9,0,4.7,0.8,5.5,1.5c0.4,0.3,0.6,0.6,0.9,1.2c0.2,0.6,0.5,1.3,0.5,2.6c0,0.6-0.1,1.4-0.2,2.3
		C619.7,85.2,610.9,104.7,597.9,120.1z"/>
	<polygon class="st0" points="571.1,26.2 555,18 543.6,40.1 559.8,48.2 	"/>
</g>
<path class="st1" d="M677.3,219.9c-38.4,0-69.6,25.6-69.6,57.3s31.1,57.3,69.6,57.3c38.4,0,69.5-25.6,69.5-57.3
	S715.7,219.9,677.3,219.9z"/>
<path class="st0" d="M730.6,295.7c0,0-12.5,24.3-54.1,24.3c-39.5,0-50.4-20.7-50.4-20.7l5.6-4.4c0,0,10.7,18,44.7,18
	c37.5,0,48.2-21.1,48.2-21.1L730.6,295.7z"/>
<path class="st0" d="M680.2,233.4c-28.9,0-53.9,14.7-57.7,35.6c-3.8,20.8,9.5,23.9,24.4,18.1c0,0,4.8,6.5,12.8,6.5
	c6.7,0,12.8-1.1,21.5-10.2c0,0,3.5,11.5,18.9,11.5c14.9,0,30.7-14,30.7-28C730.9,256.6,720.5,233.4,680.2,233.4z M716.1,281
	c-15.9,13.8-26.6,2.4-26.6,2.4s8.2-2.2,14.3-8.1c4.4-4.4,11.1-10.9,4.4-18.3c-6.7-7.4-20.9,2.2-26,13.4
	c-4.6,9.9-15.2,16.3-20.3,16.3c-5.2,0-8-2.6-8-2.6s28.8-13.6,18.7-26.2c-10.4-13-32,11.8-28.2,22.6c0,0-12.4,4.8-14.6-0.3
	c-2.8-6.3,1.2-41.3,56.2-39.4C713.3,241.7,736.8,263,716.1,281z M687.7,276.5c0,0,1.5-6.1,6.5-11.1c5-5,8.2-4.3,9-3.3
	C704.3,263.4,702.4,271.1,687.7,276.5z M651.4,276.5c0,0,1.5-6.1,6.5-11.1c5-5,8.2-4.3,9-3.3C668,263.4,666.1,271.1,651.4,276.5z"/>
</svg>
