<?xml version="1.0" encoding="UTF-8"?>
<svg width="830px" height="334px" viewBox="0 0 830 334" version="1.1" xmlns="http://www.w3.org/2000/svg" xmlns:xlink="http://www.w3.org/1999/xlink">
    <!-- Generator: Sketch 43.2 (39069) - http://www.bohemiancoding.com/sketch -->
    <title>Group</title>
    <desc>Created with Sketch.</desc>
    <defs>
        <polygon id="path-1" points="0.0001 0.352 829.145 0.352 829.145 305.1867 0.0001 305.1867 0.0001 0.352"></polygon>
        <polygon id="path-3" points="139.4542 115 0.4932 115 0.4932 0.5766 139.4542 0.5766 139.4542 115"></polygon>
    </defs>
    <g id="Page-1" stroke="none" stroke-width="1" fill="none" fill-rule="evenodd">
        <g transform="translate(0.000000, -1.000000)" id="Group">
            <g>
                <polygon id="Fill-1" fill="#1B2A37" points="137.4957 31.7881 121.3497 23.6321 110.0167 45.6881 126.1627 53.8441"></polygon>
                <g id="Group-14" transform="translate(0.000000, 0.648000)">
                    <g id="Group-4">
                        <mask id="mask-2" fill="white">
                            <use xlink:href="#path-1"></use>
                        </mask>
                        <g id="Clip-3"></g>
                        <path d="M597.6891,119.9037 C594.8871,123.2167 591.8641,125.5767 589.1861,127.1637 C586.5081,128.7517 584.1481,129.3997 581.7321,129.4827 C580.8771,129.4417 580.4211,129.3027 580.1031,129.1247 C579.6481,128.9447 579.0961,128.5307 578.4601,127.2187 C577.8261,125.8937 577.2881,123.6717 577.2881,120.7587 C577.2881,117.1287 578.1021,112.4907 580.0481,107.3977 C581.9671,102.3587 585.0031,96.9067 589.1861,91.4957 C593.0921,86.5407 597.4551,83.0487 601.6371,80.7707 C605.8191,78.5067 609.8231,77.4997 612.8181,77.4577 C615.7301,77.4167 617.4971,78.2307 618.3111,78.9627 C618.7251,79.2797 618.9471,79.5967 619.2221,80.1347 C619.4431,80.6877 619.6781,81.4607 619.6781,82.7307 C619.6781,83.3657 619.5821,84.1377 619.4431,85.0497 C619.4431,85.0497 610.6781,104.4437 597.6891,119.9037 M527.3881,273.9767 C526.7531,273.3837 526.1191,272.7077 525.5251,272.0167 C523.4821,269.6567 521.5361,266.7997 520.1271,263.3897 C518.6651,259.9387 517.7671,256.0747 517.7671,251.3537 C517.7671,245.6667 519.1201,238.6687 523.1231,230.1237 C526.9881,221.9527 531.5711,216.0037 536.7061,211.4067 C544.2561,204.7807 553.3381,200.7777 564.2021,198.4587 C550.1091,227.4457 535.9881,256.4887 527.3881,273.9767 M366.4131,179.8237 L190.6951,181.9227 C183.7101,181.9637 176.6571,181.9637 169.7131,182.0597 C166.8421,182.1017 163.9851,182.1427 161.1681,182.2397 C166.3041,171.6527 171.1631,161.6587 175.4281,152.8387 C178.2441,153.5147 185.6981,153.8457 188.6521,153.7907 C202.7871,153.6117 218.6461,138.9797 226.7771,129.1247 C237.1431,116.4937 241.8641,101.7237 254.9911,91.6747 C258.8561,88.7767 264.9021,85.1327 270.3131,85.1877 C272.8941,85.1327 274.6201,87.8237 273.5851,90.1297 C270.1741,97.5417 266.3921,104.8157 263.0801,112.2697 C258.7591,122.0847 253.9011,136.3017 262.0311,145.2467 C264.1701,147.6207 266.9861,149.2907 269.9401,150.2017 C272.8941,151.1547 276.0281,151.5267 279.4921,151.5687 C284.5721,151.4717 289.6661,150.3407 294.2481,148.1587 C299.9761,145.4397 304.8901,141.3407 309.6111,136.2057 C310.7981,139.6557 312.7861,143.1627 316.0161,145.9367 C318.0171,147.6627 320.4191,148.9727 323.0141,149.8007 C325.6511,150.6987 328.4251,151.0717 331.2831,151.0157 C334.6511,150.9747 337.8261,150.1187 340.6971,148.9317 C345.6941,146.7517 349.9591,143.3827 353.9611,139.5317 C356.3221,137.2137 358.5851,134.6177 360.7671,131.8987 C361.0431,132.4777 361.2781,133.1127 361.5951,133.7067 C362.8241,135.8877 364.5491,137.9307 366.6331,139.6147 C368.7731,141.2577 371.1741,142.5267 373.8111,143.3407 C375.9921,144.0317 378.3111,144.3907 380.5341,144.3487 C381.6241,144.3487 382.7141,144.2117 383.7631,144.0317 C378.6281,154.6607 372.6371,166.9317 366.4131,179.8237 M319.3841,276.4337 C318.7501,275.8407 318.1141,275.1507 317.5211,274.4737 C315.4221,272.1137 313.5171,269.2567 312.0681,265.8467 C310.6611,262.3957 309.7501,258.5317 309.7501,253.7967 C309.7501,248.1237 311.1161,241.1257 315.1051,232.5807 C318.9701,224.4097 323.5111,218.4457 328.6881,213.8637 C336.2381,207.2237 345.3211,203.2347 356.1841,200.9157 C342.1041,229.9027 327.9701,258.9317 319.3841,276.4337 M155.7581,132.2997 C153.0801,133.8447 150.7191,134.5347 148.3591,134.6177 C147.4491,134.5767 146.9931,134.4377 146.6751,134.2587 C146.2201,134.0237 145.6681,133.6247 145.0331,132.2997 C144.3981,131.0287 143.8591,128.8057 143.8591,125.8937 C143.8591,122.2637 144.6731,117.6257 146.6201,112.5327 C148.5391,107.4937 151.5761,102.0417 155.7581,96.6307 C159.6651,91.6747 164.0261,88.1417 168.2091,85.8637 C172.3911,83.5867 176.3941,82.5917 179.3891,82.5507 C182.2891,82.5507 184.0691,83.3247 184.8831,84.0417 C185.2971,84.4147 185.5181,84.7317 185.7941,85.2707 C186.0151,85.8227 186.2501,86.5947 186.2501,87.8657 C186.2501,88.4597 186.1531,89.1347 186.0151,89.9087 L180.7561,100.5917 C175.6631,109.5367 170.0721,118.6197 164.2611,124.9827 C161.3481,128.2137 158.4361,130.7117 155.7581,132.2997 M93.8771,279.1127 C93.2421,278.5187 92.6491,277.8417 92.0131,277.1107 C89.9711,274.7917 88.0101,271.8797 86.6031,268.5247 C85.1951,265.0747 84.2431,261.1677 84.2431,256.4327 C84.2431,250.7597 85.6091,243.8027 89.6531,235.2577 C93.5041,227.0877 98.0591,221.1377 103.2361,216.4997 C110.7311,209.8607 119.8141,205.9127 130.7181,203.5517 C116.5971,232.5807 102.4621,261.5677 93.8771,279.1127 M18.5101,112.3257 C18.5101,112.3257 22.0301,98.0657 33.6261,86.4707 C45.2341,74.8627 52.7431,76.3817 54.6891,78.6587 C57.1731,81.5567 52.8671,99.7227 18.5101,112.3257 M467.4951,81.3637 C479.1041,69.7557 486.6131,71.2737 488.5591,73.5507 C491.0431,76.4497 486.7371,94.6157 452.3801,107.2177 C452.3801,107.2177 455.9001,92.9597 467.4951,81.3637 M763.8551,101.2267 L763.9931,100.9927 L789.2941,51.7007 L829.1451,51.2447 L829.1451,33.0657 L798.6951,33.4247 L811.5181,8.4817 L795.3821,0.3517 L778.2521,33.6597 L739.0371,34.1147 L739.0371,52.2797 L768.8521,51.9217 L748.1331,92.2687 C740.0441,105.8507 733.4051,115.4447 727.7731,120.9387 C724.9161,123.7547 722.4181,125.4797 720.0981,126.6257 C719.9181,126.7087 719.8221,126.7637 719.6421,126.8047 L719.5871,126.8047 C717.4071,127.7577 715.4181,128.1717 712.9201,128.2547 C711.2361,128.2137 710.0491,128.0747 709.4561,127.8957 L709.1931,127.7997 L709.1931,127.3987 C709.0971,125.8527 709.9111,122.3047 711.5541,118.2187 C714.0101,112.0357 717.9181,104.5407 721.4101,97.4447 C723.1901,93.8147 724.8191,90.3637 726.0881,86.9547 C727.3591,83.4627 728.4081,80.1907 728.4491,76.1457 C728.4491,74.5457 728.2701,72.8197 727.6341,70.9567 C727.1381,69.6037 726.4071,68.1397 725.3711,66.9667 C723.7701,65.0487 721.5881,63.6957 719.5041,62.9647 C717.4071,62.2877 715.4181,62.0527 713.4181,62.0937 C704.6941,62.1907 696.7431,65.5587 689.5651,70.2387 L720.1811,10.7047 L704.0031,2.5327 L656.7541,94.4917 C648.4861,108.3497 640.7141,117.6257 634.0341,123.1197 C627.2141,128.7517 621.9421,130.5317 617.5391,130.5737 C617.4971,130.5737 617.4561,130.5737 617.4011,130.5317 L617.3591,130.5737 L617.2211,130.5737 C622.1351,120.4827 625.1301,114.2167 625.2131,114.0367 L641.4461,81.4057 L650.6671,62.8257 L634.3921,54.8757 L629.5751,64.6067 C628.4851,63.7367 627.3941,62.9647 626.2211,62.3297 C622.0801,60.1477 617.4971,59.2787 612.8181,59.2787 C606.3161,59.4167 599.5941,61.2797 593.0921,64.7867 C586.5911,68.3757 580.3251,73.5097 574.9681,80.4537 C571.9181,84.3177 555.5611,111.3037 548.7011,118.8957 C545.2921,122.6647 541.7991,125.8107 538.7491,127.7577 C535.7111,129.7587 533.2131,130.4907 531.7091,130.4907 C530.1221,130.4347 529.3071,130.2147 528.8511,130.0347 L528.1201,129.4417 C527.8021,129.0827 527.3471,128.3917 526.9881,127.1227 C526.6151,125.8937 526.3941,124.1687 526.3941,122.1677 C526.3531,116.6327 528.3401,109.1777 530.3421,104.8577 C530.5771,104.5407 530.7561,104.2637 530.9361,103.9467 L531.1151,103.6707 L549.0181,68.8307 L532.8961,60.6447 L515.2131,94.9467 C506.9871,108.8047 498.5811,118.3017 491.0021,124.0717 C483.3691,129.9797 476.6881,132.0777 471.4161,132.1607 C467.7301,132.2167 464.6371,131.3047 461.7391,129.5237 C459.8761,128.4337 458.1501,126.8457 456.5071,124.9827 C467.7301,121.2567 478.3731,115.0307 487.1371,107.7697 C492.4931,103.2287 497.1311,98.3147 500.6781,93.0007 C504.1291,87.6857 506.6691,81.9577 506.7241,75.4147 C506.7241,71.6467 505.7161,67.6427 503.5361,64.2337 C501.3961,60.8247 498.2211,58.1467 494.5911,56.1447 C491.4031,54.4197 487.9521,53.7437 484.6801,53.7847 C478.1791,53.9237 472.2711,56.3807 466.6391,59.8307 C458.2881,65.0077 450.3781,72.8197 444.1951,81.9577 C438.0661,91.0947 433.5661,101.7237 433.5251,112.9467 C433.5251,118.9927 434.9331,125.1627 438.2461,130.7117 C441.7931,136.6607 446.4721,141.6577 452.1461,145.1227 C457.8331,148.5727 464.4591,150.4367 471.4161,150.3407 C481.5471,150.2017 491.9971,146.1157 501.9901,138.4827 C504.4881,136.5227 506.9871,134.3417 509.4441,131.9807 C510.5761,136.0667 512.6731,140.3457 516.4421,143.5767 C518.4441,145.2467 520.8451,146.6127 523.4401,147.4267 C526.0771,148.2977 528.8511,148.7117 531.7091,148.6557 C537.9751,148.5177 543.5661,146.1577 548.4801,143.0237 C552.9801,140.0287 557.0661,136.3017 560.9301,132.1607 C561.7451,134.6177 562.8351,136.9777 564.3811,139.1587 C566.2871,141.7127 568.8261,143.9347 571.8771,145.4807 C574.8721,146.9717 578.3231,147.7037 581.7321,147.6627 C584.4111,147.6207 586.9631,147.2067 589.4201,146.5297 C584.8251,155.9297 579.7311,166.4757 574.4171,177.3817 L416.1601,179.2447 C409.1621,179.3277 402.1641,179.3277 395.1651,179.3687 C392.3071,179.4247 389.4921,179.5067 386.6211,179.6027 C403.2531,145.3007 416.9331,117.0737 417.2101,116.4937 L438.3831,73.8687 L420.9771,65.3657 L420.3011,66.9117 C419.6671,68.5537 413.3441,84.5517 404.7171,99.5847 C400.3961,107.0797 395.4821,114.3537 390.8031,119.3507 C388.4841,121.8077 386.2201,123.6717 384.3981,124.7617 C382.5351,125.8937 381.2651,126.1707 380.5341,126.1707 L379.4981,126.0317 C378.7251,125.8107 378.3111,125.5347 378.0351,125.2997 C377.6341,124.9827 377.4001,124.6657 377.0411,123.8097 C376.7231,122.9817 376.4891,121.5737 376.4891,119.7107 C376.4481,116.3557 377.3591,111.5797 378.9461,106.6247 C379.8161,103.8077 380.9061,100.9517 382.0381,98.1757 C382.1341,97.9977 382.2581,97.8177 382.2581,97.6377 C384.1771,93.0417 386.2201,88.7207 388.0841,85.0497 C389.6291,82.0537 391.0381,79.5427 392.0321,77.7747 C392.5291,76.9197 392.9431,76.2287 393.2181,75.7737 L393.4951,75.2767 L393.5781,75.1387 L378.1311,65.7797 C377.9941,65.9597 373.2171,73.7307 368.4001,84.1377 C367.4481,86.1807 366.5501,88.3627 365.6391,90.5437 C360.8641,99.6267 354.4591,110.7647 347.7781,119.3097 C344.2861,123.7547 340.7381,127.4817 337.6871,129.7587 C336.1971,130.9317 334.8311,131.7597 333.6981,132.2167 C332.6081,132.7137 331.8351,132.8507 331.2831,132.8507 C329.6951,132.7957 328.8801,132.5747 328.4251,132.3947 L327.6941,131.8017 C327.3771,131.4427 326.9201,130.7527 326.5621,129.4827 C326.1891,128.2547 325.9681,126.5287 325.9681,124.5277 C325.9271,118.8957 327.9281,111.4007 329.9161,107.0797 C330.1091,106.8177 330.2341,106.5837 330.4271,106.3067 L330.5511,106.0867 L355.8671,56.8357 L393.3011,56.3807 L393.3011,38.2007 L365.2671,38.5177 L378.1311,13.6167 L361.9541,5.4447 L344.8241,38.7947 L303.2071,39.2497 L303.2071,57.4157 L335.4231,57.0557 L314.7051,97.3627 C306.6161,110.9447 299.9761,120.5387 294.3441,126.0737 C291.4871,128.8477 288.9751,130.6147 286.6691,131.7597 C284.3511,132.7957 282.1691,133.3477 279.4921,133.3887 C277.8081,133.3887 276.6211,133.1687 275.9861,132.9887 L275.7651,132.8917 L275.7651,132.4777 C275.6681,130.9317 276.4831,127.3987 278.1261,123.3537 C280.5271,117.1287 284.4891,109.6327 287.9811,102.5387 C289.7481,98.9907 291.3901,95.4577 292.6611,92.0487 C293.9301,88.5967 294.9791,85.2707 295.0211,81.2257 C295.0211,79.6387 294.8411,77.9547 294.2071,76.0907 C293.7101,74.7387 292.9371,73.3307 291.8871,72.0467 C290.3411,70.1827 288.1611,68.8307 286.0771,68.0987 C283.9781,67.3677 281.9911,67.1877 279.9891,67.1877 C271.2651,67.3257 263.3141,70.6937 256.1361,75.3737 L286.7521,15.8397 L270.5751,7.6677 L223.3261,99.5847 C215.0571,113.4427 207.2871,122.7187 200.6051,128.2547 C193.7871,133.8857 188.4721,135.6257 184.1101,135.6667 C183.9721,135.6667 183.8891,135.6257 183.7521,135.6257 C188.6101,125.5767 191.6611,119.3097 191.7441,119.1307 L216.0511,70.1417 L199.7911,62.1907 L196.1051,69.6447 C195.0561,68.7747 193.9241,68.0987 192.7931,67.4647 C188.6521,65.2417 184.0691,64.3727 179.3891,64.3727 C172.8881,64.5097 166.1661,66.4157 159.6651,69.9217 C137.9521,81.6817 130.9541,106.5417 115.2721,123.9887 C111.8631,127.7997 108.3711,130.9317 105.3201,132.8917 C102.2841,134.8937 99.7851,135.5697 98.2811,135.6257 C96.6931,135.5697 95.8781,135.2947 95.4231,135.1147 L94.6921,134.5347 C94.3751,134.2037 93.9181,133.5277 93.5601,132.2577 C93.1871,131.0287 92.9661,129.3027 92.9661,127.3017 C93.0071,115.5417 99.0121,105.5897 104.4091,95.5407 C105.1821,94.0917 115.4111,73.9107 115.5071,73.9107 L99.3711,65.7387 L81.7441,100.0817 C73.4761,113.9397 65.0691,123.3957 57.4771,129.1657 C49.8441,135.0737 43.1641,137.2137 37.8901,137.2547 C34.2601,137.2957 31.1271,136.4397 28.2141,134.6597 C26.3511,133.5277 24.6261,131.9807 22.9971,130.0347 C34.2181,126.3487 44.8471,120.1247 53.6131,112.8497 C58.9821,108.3497 63.6061,103.4497 67.1541,98.1347 C70.6041,92.8207 73.1581,87.0507 73.2001,80.5077 C73.2001,76.7257 72.2061,72.7367 70.0251,69.3687 C67.8441,65.9187 64.6971,63.2397 61.0661,61.2387 C57.8911,59.5547 54.3851,58.8787 51.1561,58.9197 C44.6681,59.0157 38.7601,61.5147 33.1281,64.9247 C24.7631,70.1417 16.8541,77.9137 10.6691,87.0507 C4.5421,96.2297 0.0421,106.8177 0.0001,118.0397 C0.0001,124.0307 1.4081,130.2977 4.7201,135.8457 C8.2681,141.7957 12.9481,146.7927 18.6341,150.2017 C24.3081,153.7087 30.9471,155.5717 37.8901,155.4327 C48.0221,155.3367 58.4711,151.2517 68.4791,143.5767 C70.9771,141.6157 73.5171,139.4347 76.0151,136.9777 C77.1061,141.1607 79.1901,145.4397 83.0141,148.7117 C85.0151,150.3817 87.4181,151.7067 90.0121,152.5617 C92.6491,153.4317 95.4231,153.7907 98.2811,153.7907 C104.5471,153.6527 110.1371,151.2517 115.0931,148.1177 C119.5511,145.1637 123.6371,141.4367 127.5021,137.2957 C128.3171,139.7527 129.4071,142.0717 130.9541,144.2527 C132.8581,146.8477 135.3981,149.0697 138.4491,150.5747 C141.4441,152.0647 144.8951,152.7977 148.3591,152.7977 C150.9411,152.7557 153.4391,152.2997 155.8961,151.6657 C151.1751,161.4247 145.9021,172.2877 140.3951,183.6057 C131.6701,184.5997 123.1821,186.2837 114.9971,189.1407 C106.5071,192.1917 98.3771,196.6917 91.2411,202.9587 C84.1041,209.3217 77.9751,217.5497 73.2001,227.6797 C68.2031,238.2677 66.0631,247.9857 66.0631,256.6677 C66.0631,264.3417 67.7481,271.0647 70.2871,276.7517 C74.1111,285.2407 79.7011,291.1897 84.2841,295.1107 C88.8801,298.9617 92.5521,300.8247 93.0071,301.1007 L101.1931,305.1867 L105.2791,296.9187 C113.2301,280.9337 133.3141,239.5797 152.1271,200.8187 C157.8011,200.4607 163.6261,200.3217 169.7131,200.2257 C176.4771,200.1427 183.5171,200.1427 190.6951,200.1007 L318.9701,198.5547 C318.1971,199.1347 317.4241,199.7287 316.7481,200.3217 C309.5701,206.6857 303.4831,214.8567 298.7071,225.0447 C293.7101,235.6317 291.5291,245.3077 291.5701,253.9897 C291.5291,261.6647 293.2541,268.4277 295.7521,274.0597 C299.5621,282.5627 305.1531,288.5677 309.7501,292.4737 C314.3321,296.2837 318.0171,298.1887 318.4731,298.4237 L326.6451,302.5087 L330.7451,294.2407 C338.6951,278.2427 358.7791,236.9427 377.6341,198.1407 C380.0781,198.0037 382.5351,197.8657 385.0881,197.7827 C392.5291,197.6857 396.9461,197.6437 396.9461,197.5477 C403.2121,197.4657 409.6171,197.5067 416.1601,197.4097 L526.9881,196.0977 C526.2561,196.6917 525.4831,197.2717 524.7511,197.8657 C517.5741,204.2287 511.4871,212.4137 506.7241,222.5877 C501.7271,233.1747 499.5881,242.8507 499.5881,251.5327 C499.5881,259.2077 501.2721,265.9847 503.8121,271.6167 C507.6221,280.1057 513.1701,286.1107 517.7671,290.0167 C522.3911,293.8267 526.0361,295.6897 526.5331,295.9657 L534.6631,300.0517 L538.8031,291.7837 C546.6991,275.7997 566.8381,234.4857 585.6381,195.6837 C591.2851,195.3667 597.1371,195.1867 603.1831,195.0907 C610.0021,195.0497 617.0421,195.0497 624.2191,194.9667 C669.7021,194.4147 798.6541,192.9097 798.6541,192.9097 L798.6541,174.7447 C798.6541,174.7447 669.7021,176.2347 624.2191,176.7877 C617.1791,176.8707 610.1811,176.8707 603.1831,176.9247 C600.3261,176.9667 597.5091,177.0627 594.6801,177.1457 C597.9101,170.5207 601.0021,164.1017 603.8591,158.0697 L607.2691,151.0717 C607.8211,149.9257 608.3591,148.7947 608.9121,147.7037 L608.9531,147.7037 C611.8101,148.3937 619.1811,148.7117 622.0801,148.7117 C636.2141,148.5177 652.0751,133.8857 660.2051,124.0307 C670.5721,111.3587 675.3341,96.6307 688.4191,86.5407 C692.3261,83.6417 698.3301,80.0527 703.7831,80.0527 C706.3221,80.0527 708.0471,82.6887 707.0121,85.0077 C703.6031,92.4067 699.8351,99.6807 696.5081,107.1347 C692.2021,116.9497 687.3291,131.2087 695.4731,140.1117 C697.5981,142.5267 700.4151,144.1557 703.3691,145.0667 C706.0601,145.9777 708.8211,146.3377 711.8721,146.3917 C712.1891,146.4327 712.5471,146.4327 712.9201,146.4327 C718.0001,146.3917 723.0931,145.2047 727.6761,143.0237 C733.4051,140.3457 738.3191,136.2057 743.0401,131.0707 C744.2261,134.5767 746.2141,138.0267 749.4441,140.8017 C751.4461,142.5267 753.8471,143.8387 756.4431,144.7087 C759.0791,145.5637 761.8531,145.9367 764.7101,145.9367 C768.0791,145.8817 771.2531,145.0257 774.1251,143.7977 C779.1221,141.6577 783.3871,138.3027 787.3901,134.4377 C793.3391,128.5717 798.6541,121.3937 803.4291,113.9957 C808.1921,106.5837 812.4291,98.9907 815.7421,92.5037 L799.6061,84.3177 C794.8431,93.6347 788.1631,105.3127 781.2061,114.1747 C777.7131,118.6197 774.1671,122.3457 771.1161,124.6657 C769.6251,125.8107 768.2581,126.6677 767.1261,127.1227 C766.0361,127.5777 765.2631,127.7157 764.7101,127.7577 C763.1241,127.7157 762.3091,127.4397 761.8531,127.2597 L761.1221,126.6677 C760.8041,126.3487 760.3491,125.6737 759.9901,124.3887 C759.6311,123.1747 759.3961,121.4357 759.3961,119.4477 C759.3551,113.8017 761.3571,106.2647 763.3441,102.0007 C763.5381,101.7237 763.6621,101.4897 763.8551,101.2267" id="Fill-2" fill="#1B2A37" mask="url(#mask-2)"></path>
                    </g>
                    <polygon id="Fill-5" fill="#1B2A37" points="570.9235 26.0258 554.7775 17.8708 543.4445 39.9258 559.5905 48.0828"></polygon>
                    <g id="Group-9" transform="translate(607.000000, 219.000000)">
                        <mask id="mask-4" fill="white">
                            <use xlink:href="#path-3"></use>
                        </mask>
                        <g id="Clip-8"></g>
                        <path d="M69.9762,0.5766 C31.6022,0.5766 0.4932,26.1956 0.4932,57.7906 C0.4932,89.3866 31.6022,115.0006 69.9762,115.0006 C108.3492,115.0006 139.4542,89.3866 139.4542,57.7906 C139.4542,26.1956 108.3492,0.5766 69.9762,0.5766" id="Fill-7" fill="#F9A231" mask="url(#mask-4)"></path>
                    </g>
                    <path d="M730.2555,295.2661 C730.2555,295.2661 717.8175,319.5541 676.2095,319.5541 C636.7705,319.5541 625.8225,298.9151 625.8225,298.9151 L631.4495,294.4861 C631.4495,294.4861 642.1665,312.4261 676.0945,312.4261 C713.5225,312.4261 724.2695,291.3171 724.2695,291.3171 L730.2555,295.2661 Z" id="Fill-10" fill="#1B2A37"></path>
                    <path d="M651.1364,276.145 C651.1364,276.145 652.6434,270.043 657.6044,265.082 C662.5704,260.117 665.7824,260.768 666.6144,261.739 C667.6804,262.98 665.8384,270.754 651.1364,276.145 M687.4124,276.145 C687.4124,276.145 688.9194,270.043 693.8794,265.082 C698.8454,260.117 702.0594,260.768 702.8904,261.739 C703.9554,262.98 702.1144,270.754 687.4124,276.145 M715.7144,280.65 C699.8514,294.46 689.1394,283.028 689.1394,283.028 C689.1394,283.028 697.3384,280.85 703.3754,274.889 C707.7854,270.539 714.4784,264.032 707.7954,256.653 C701.0924,249.255 686.9114,258.866 681.7854,270.034 C677.2314,279.955 666.6394,286.282 661.4834,286.282 C656.2924,286.282 653.5294,283.689 653.5294,283.689 C653.5294,283.689 682.3014,270.124 672.1954,257.495 C661.7984,244.499 640.2404,269.283 644.0744,280.04 C644.0744,280.04 631.6694,284.8 629.4474,279.79 C626.6694,273.532 630.6184,238.528 685.5704,240.425 C712.9814,241.371 736.4124,262.63 715.7144,280.65 M679.9444,233.057 C651.0364,233.057 626.0834,247.784 622.2944,268.602 C618.4994,289.425 631.7404,292.454 646.7064,286.682 C646.7064,286.682 651.4774,293.165 659.4814,293.165 C666.1734,293.165 672.2404,292.033 680.9404,282.967 C680.9404,282.967 684.4084,294.46 699.8514,294.46 C714.7334,294.46 730.5504,280.5 730.5504,266.524 C730.5504,256.263 720.1144,233.057 679.9444,233.057" id="Fill-12" fill="#1B2A37"></path>
                </g>
            </g>
        </g>
    </g>
</svg>